<?xml version="1.0" encoding="UTF-8" standalone="no"?><!DOCTYPE svg PUBLIC "-//W3C//DTD SVG 1.1//EN" "http://www.w3.org/Graphics/SVG/1.1/DTD/svg11.dtd"><svg width="100%" height="100%" viewBox="0 0 67 88" version="1.1" xmlns="http://www.w3.org/2000/svg" xmlns:xlink="http://www.w3.org/1999/xlink" xml:space="preserve" xmlns:serif="http://www.serif.com/" style="fill-rule:evenodd;clip-rule:evenodd;stroke-linejoin:round;stroke-miterlimit:2;"><g><g><path d="M9.495,42.72c1.688,0 2.532,0.688 2.532,2.063c-0,1.031 -0.782,1.812 -2.344,2.344c-2.688,0.968 -4.031,2.703 -4.031,5.203c-0,2 0.781,3.562 2.343,4.687c1.344,0.938 3.047,1.407 5.11,1.407c4.125,-0 7.734,-1.204 10.828,-3.61c1.937,-1.531 2.906,-3.469 2.906,-5.812c0,-1.438 -0.281,-2.735 -0.844,-3.891c-0.593,-1.187 -1.5,-2.687 -2.718,-4.5c-1.875,-2.812 -3.454,-5.375 -4.735,-7.687c-1.437,-2.563 -2.156,-5.079 -2.156,-7.547c-0,-5.844 2.891,-11.313 8.672,-16.407c3.062,-2.656 6.437,-4.812 10.125,-6.468c3.062,-1.344 6.015,-2.016 8.859,-2.016c1.844,0 3.406,0.484 4.688,1.453c1.562,1.156 2.343,2.735 2.343,4.735c0,3.125 -1.687,6.5 -5.062,10.125c-3.188,3.406 -6.906,6.187 -11.156,8.343c-2.125,1.063 -3.735,1.594 -4.828,1.594c-0.719,0 -1.36,-0.297 -1.922,-0.891c-0.375,-0.406 -0.563,-0.859 -0.563,-1.359c0,-1.156 1.031,-2.094 3.094,-2.812c3.781,-1.344 7.125,-3.235 10.031,-5.672c3.75,-3.125 5.625,-5.86 5.625,-8.203c0,-0.907 -0.375,-1.641 -1.125,-2.204c-0.594,-0.437 -1.297,-0.656 -2.109,-0.656c-2.156,0 -4.86,0.828 -8.11,2.485c-4.375,2.218 -7.812,5.078 -10.312,8.578c-2.188,3.031 -3.281,5.984 -3.281,8.859c-0,2.094 0.578,4.25 1.734,6.469c0.969,1.781 2.203,3.797 3.703,6.047c1.438,2.156 2.656,4.156 3.656,6c1.157,2.187 1.735,4.234 1.735,6.14c-0,3.688 -2.11,6.953 -6.328,9.797c-3.594,2.375 -7.657,3.563 -12.188,3.563c-4.469,-0 -7.969,-1.235 -10.5,-3.703c-1.906,-1.875 -2.859,-4.032 -2.859,-6.469c-0,-2.719 0.906,-5 2.719,-6.844c1.093,-1.125 2.39,-1.969 3.89,-2.531c1.031,-0.406 1.891,-0.61 2.578,-0.61Z" style="fill:#fff;fill-rule:nonzero;"/><path d="M51.448,56.783c3.344,-2.438 5.829,-4.656 7.454,-6.656c2.406,-2.907 4.109,-5.266 5.109,-7.078c0.5,-0.813 1.016,-1.219 1.547,-1.219c0.75,-0 1.125,0.359 1.125,1.078c-0,0.844 -0.594,2.25 -1.781,4.219c-3.688,6 -9.219,11.234 -16.594,15.703c-3.438,7.187 -5.969,12.062 -7.594,14.625c-4.312,6.75 -8.375,10.125 -12.187,10.125c-2,-0 -3.438,-0.781 -4.313,-2.344c-0.5,-0.906 -0.75,-1.937 -0.75,-3.094c0,-4.906 3.156,-9.609 9.469,-14.109c1,-0.75 5.047,-3.094 12.14,-7.031c1.375,-2.907 2.438,-5.188 3.188,-6.844c-3.281,3.437 -6,5.156 -8.156,5.156c-1.344,0 -2.391,-0.687 -3.141,-2.062c-0.469,-0.907 -0.703,-1.844 -0.703,-2.813c-0,-2.25 0.922,-5.14 2.766,-8.672c2.625,-5.093 5.781,-9.125 9.468,-12.093c3.094,-2.469 5.828,-3.704 8.203,-3.704c1.219,0 2.266,0.454 3.141,1.36c0.594,0.594 0.891,1.469 0.891,2.625c-0,1.437 -0.485,3.219 -1.453,5.344c0.718,0.687 1.078,1.203 1.078,1.546c-0,0.219 -0.157,0.532 -0.469,0.938c-0.844,1.156 -2.203,3.328 -4.078,6.516c-1.656,2.781 -3.11,5.609 -4.36,8.484Zm-0.328,-10.828c-0.437,-0.469 -0.656,-0.797 -0.656,-0.985c0,-0.281 0.234,-0.64 0.703,-1.078c1.563,-1.5 2.828,-3.062 3.797,-4.687c0.781,-1.281 1.172,-2.281 1.172,-3c-0,-0.844 -0.391,-1.266 -1.172,-1.266c-1.344,0 -3.266,1.281 -5.766,3.844c-2.968,3.031 -5.281,6.422 -6.937,10.172c-0.813,1.875 -1.219,3.312 -1.219,4.312c0,0.563 0.125,0.985 0.375,1.266c0.25,0.281 0.61,0.422 1.078,0.422c1.094,-0 2.625,-1.125 4.594,-3.375c1.25,-1.438 2.313,-2.844 3.188,-4.219c0.593,-0.906 0.875,-1.375 0.843,-1.406Zm-8.859,20.484c-4.125,1.75 -7.766,4.406 -10.922,7.969c-1.469,1.656 -2.516,3.406 -3.141,5.25c-0.187,0.562 -0.281,1.031 -0.281,1.406c0,0.406 0.094,0.766 0.281,1.078c0.344,0.563 0.829,0.844 1.454,0.844c1.937,0 4.203,-2.078 6.796,-6.234c2.25,-3.594 4.188,-7.032 5.813,-10.313Z" style="fill:#fff;fill-rule:nonzero;"/></g></g></svg>